<svg width="16" height="16" viewBox="0 0 16 16" fill="none" xmlns="http://www.w3.org/2000/svg">
<path d="M13.5 15H2.5C1.67156 15 1 14.3284 1 13.5V2.5C1 1.67156 1.67156 1 2.5 1H13.5C14.3284 1 15 1.67156 15 2.5V13.5C15 14.3284 14.3284 15 13.5 15ZM7.10356 11.9357L12.8536 6.18566C13.0488 5.99041 13.0488 5.67381 12.8536 5.47856L12.1465 4.77147C11.9512 4.57622 11.6346 4.57619 11.4393 4.77147L6.75 9.46078L4.56066 7.27144C4.36541 7.07619 4.04881 7.07619 3.85353 7.27144L3.14644 7.97853C2.95119 8.17378 2.95119 8.49038 3.14644 8.68563L6.39644 11.9356C6.59172 12.1309 6.90828 12.1309 7.10356 11.9357Z" fill="#FBF9FF"/>
</svg>
